<svg width="55" height="55" viewBox="0 0 55 55" fill="none" xmlns="http://www.w3.org/2000/svg">
<rect width="43.8717" height="20.6455" transform="translate(5.05469 29.1523) rotate(-5.21509)" fill="#27637B"/>
<path d="M7.3862 51.6768L5.45999 30.5729L11.392 30.0315C13.3603 29.8519 15.0905 31.2927 15.2702 33.2609L16.5476 47.2573C16.7273 49.2255 15.2865 50.9557 13.3182 51.1354L7.3862 51.6768ZM12.6406 46.4286L11.5802 34.8105C11.5327 34.2911 11.0828 33.8912 10.5634 33.9386L9.6066 34.0259L10.8417 47.5575L11.7985 47.4702C12.3178 47.4228 12.688 46.948 12.6406 46.4286ZM15.8662 33.3994C15.6566 31.1032 17.3458 29.0746 19.6421 28.865L20.8176 28.7577C23.1138 28.5482 25.1424 30.2374 25.352 32.5337L26.5422 45.5732C26.7792 48.1702 24.8415 50.4971 22.2446 50.7341C19.6202 50.9736 17.2934 49.036 17.0563 46.439L15.8662 33.3994ZM20.8561 46.0922C20.9035 46.6116 21.351 46.9842 21.8977 46.9343C22.4171 46.8869 22.7898 46.4394 22.7424 45.92L21.6071 33.4819C21.5597 32.9625 21.1097 32.5625 20.5903 32.6099C20.0436 32.6598 19.6735 33.1346 19.7209 33.654L20.8561 46.0922ZM37.9028 48.8915L34.1031 49.2383L30.827 40.827L30.4989 40.8569L31.2874 49.4953L27.4876 49.8421L25.5614 28.7382L29.3612 28.3914L32.6398 36.8301L32.9678 36.8001L32.1768 28.1344L35.9766 27.7876L37.9028 48.8915ZM40.626 31.1947L41.0701 36.0606L45.1979 35.6838L45.5448 39.4836L41.4169 39.8604L41.8611 44.7263L46.6176 44.2922L46.9619 48.0646L38.4056 48.8456L36.4794 27.7417L45.0357 26.9607L45.3826 30.7605L40.626 31.1947Z" fill="#9EFFFF"/>
<rect width="31.2789" height="21.6778" transform="translate(4.4043 7.0022) rotate(-7.43708)" fill="#134052"/>
<path d="M13.1663 7.32231L17.0797 28.1829L13.1329 28.6981L12.587 25.3643L11.1988 25.5455L11.5269 28.9077L7.58014 29.4229L6.00759 8.25677L13.1663 7.32231ZM10.841 21.7442L11.9298 21.6021L10.2577 11.5499L9.90388 11.5961L10.841 21.7442ZM26.1482 26.9991L17.6285 28.1112L14.8856 7.09788L18.669 6.604L20.9217 23.8611L25.6579 23.2428L26.1482 26.9991ZM35.239 25.8124L26.7194 26.9245L23.9764 5.91121L27.7599 5.41733L30.0125 22.6744L34.7487 22.0561L35.239 25.8124Z" fill="#3BEAEA"/>
<rect width="6.7098" height="6.7098" transform="translate(32.2256 3.37354)" fill="#0E303E"/>
<path d="M35.5869 9.08057C35.2607 9.08057 34.9548 9.01939 34.6693 8.89704C34.3838 8.7747 34.133 8.60544 33.9169 8.38929C33.7007 8.17314 33.5315 7.92232 33.4091 7.63684C33.2868 7.35136 33.2256 7.04549 33.2256 6.71922C33.2256 6.39295 33.2847 6.08912 33.403 5.80771C33.5253 5.52631 33.6946 5.27753 33.9107 5.06138C34.1269 4.84523 34.3777 4.67802 34.6632 4.55975C34.9487 4.4374 35.2566 4.37622 35.5869 4.37622C35.9091 4.37622 36.2109 4.4374 36.4923 4.55975C36.7778 4.67802 37.0286 4.84523 37.2448 5.06138C37.4609 5.27345 37.6302 5.52223 37.7525 5.80771C37.8749 6.08912 37.9361 6.39295 37.9361 6.71922C37.9361 7.04549 37.8749 7.35136 37.7525 7.63684C37.6343 7.92232 37.467 8.17314 37.2509 8.38929C37.0347 8.60544 36.7839 8.7747 36.4984 8.89704C36.217 9.01939 35.9132 9.08057 35.5869 9.08057ZM35.5869 8.51164C35.8357 8.51164 36.0661 8.46678 36.2782 8.37706C36.4944 8.28326 36.684 8.15479 36.8471 7.99166C37.0103 7.82852 37.1367 7.63888 37.2264 7.42273C37.3202 7.20658 37.3671 6.97208 37.3671 6.71922C37.3671 6.47452 37.3202 6.24409 37.2264 6.02794C37.1367 5.81179 37.0103 5.62215 36.8471 5.45902C36.684 5.29588 36.4944 5.16946 36.2782 5.07973C36.0661 4.98593 35.8357 4.93903 35.5869 4.93903C35.3341 4.93903 35.0996 4.98593 34.8834 5.07973C34.6673 5.16946 34.4776 5.29588 34.3145 5.45902C34.1514 5.62215 34.0229 5.81179 33.9291 6.02794C33.8394 6.24002 33.7945 6.47044 33.7945 6.71922C33.7945 6.97208 33.8394 7.20658 33.9291 7.42273C34.0229 7.63888 34.1514 7.82852 34.3145 7.99166C34.4776 8.15479 34.6673 8.28326 34.8834 8.37706C35.0996 8.46678 35.3341 8.51164 35.5869 8.51164ZM35.6114 8.01001C35.3749 8.01001 35.1587 7.95495 34.963 7.84484C34.7713 7.73064 34.6183 7.57771 34.5041 7.38603C34.394 7.19027 34.339 6.97004 34.339 6.72534C34.339 6.47656 34.394 6.25633 34.5041 6.06465C34.6183 5.87297 34.7713 5.72207 34.963 5.61195C35.1546 5.50184 35.3708 5.44678 35.6114 5.44678C35.7949 5.44678 35.9601 5.47737 36.1069 5.53854C36.2578 5.59564 36.3842 5.67517 36.4862 5.77713C36.5882 5.87908 36.6595 5.99532 36.7003 6.12582L36.1497 6.33993C36.109 6.24205 36.0417 6.16049 35.9479 6.09524C35.8581 6.0259 35.746 5.99124 35.6114 5.99124C35.4116 5.99124 35.2505 6.06057 35.1281 6.19923C35.0099 6.33382 34.9507 6.50919 34.9507 6.72534C34.9507 6.94149 35.0099 7.11889 35.1281 7.25756C35.2505 7.39214 35.4116 7.45943 35.6114 7.45943C35.7419 7.45943 35.8541 7.42681 35.9479 7.36156C36.0417 7.2963 36.109 7.21474 36.1497 7.11686L36.7003 7.33097C36.6595 7.46147 36.5882 7.57771 36.4862 7.67966C36.3842 7.78162 36.2578 7.86319 36.1069 7.92436C35.9601 7.98146 35.7949 8.01001 35.6114 8.01001Z" fill="#9EFFFF"/>
<rect width="12.9035" height="8.77435" transform="translate(36.7236 15.1926) rotate(6)" fill="#0E303E"/>
<path d="M43.6703 22.1055L45.5904 25.371L43.3822 26.6846L41.4592 23.4464L38.9323 26.2169L37.0455 24.4729L39.6026 21.6779L36.2043 20.1339L37.2514 17.7874L40.6224 19.3286L41.0097 15.6431L43.5486 15.91L43.1612 19.5954L46.779 18.7888L47.3153 21.3017L43.6703 22.1055Z" fill="#3BEACB"/>
</svg>
